:FULLY-SPECIFIED
:FORCE-ALL-JOINTS-BE-3DOF
:DEGREES
374
root 6.17825 16.5447 -15.8172 9.2923 -17.316 -6.30596
lfemur -41.7403 21.2631 -11.7817
ltibia 57.6227 -0 0
lfoot -5.99654 -0.596885 -0.202879
ltoes 15.4985 -0 0
rfemur -22.0604 -2.443 31.4094
rtibia 38.3406 -0 0
rfoot -23.3271 1.36911 0.158818
rtoes 15.6633 -0 0
lowerback 4.58208 1.94285 3.49391
upperback 2.45123 2.71041 1.0601
thorax 0.0969524 1.37837 -0.993073
lowerneck -7.53953 -1.54167 2.82383
upperneck -0.0911688 -2.35497 2.23206
head 1.23687 -1.13554 0.135331
lclavicle 8.455e-15 -7.06342e-16 2.69755e-31
lhumerus -40.3368 -22.7506 95.0185
lradius 55.4771 -0 0
lwrist 16.9001 0 0
lhand -19.8164 2.99061 0.109317
lfingers 7.12502 -0 0
lthumb 6.51472 32.8027 0.0960246
rclavicle 8.455e-15 -7.06342e-16 2.69755e-31
rhumerus -38.3791 12.4394 -94.1857
rradius 61.0097 -0 0
rwrist 8.95128 0 0
rhand -16.3294 -22.7179 0.503982
rfingers 7.12502 -0 0
rthumb 9.8972 -52.3777 0.449356
375
root 6.13568 16.545 -15.7 9.39294 -18.0305 -6.4321
lfemur -43.035 21.1806 -12.4517
ltibia 56.4287 -0 0
lfoot -6.54212 0.191116 -0.160525
ltoes 15.0289 -0 0
rfemur -21.4938 -1.75722 31.4075
rtibia 38.3012 -0 0
rfoot -23.3609 1.17206 0.115924
rtoes 16.1645 -0 0
lowerback 4.69044 2.04509 3.62319
upperback 2.46596 2.85616 0.985989
thorax 0.0628563 1.45163 -1.14973
lowerneck -7.50541 -1.4031 3.01117
upperneck -0.147081 -2.18252 2.13838
head 1.20871 -1.05168 0.0830401
lclavicle 8.43477e-15 -1.51996e-15 2.31322e-31
lhumerus -40.1438 -22.7876 94.5917
lradius 55.341 -0 0
lwrist 17.0019 0 0
lhand -20.4728 2.72433 0.0874825
lfingers 7.12502 -0 0
lthumb 5.88145 32.5681 0.0760624
rclavicle 8.43477e-15 -1.51996e-15 2.31322e-31
rhumerus -38.2338 12.9615 -94.1382
rradius 60.2307 -0 0
rwrist 9.3028 0 0
rhand -14.8788 -21.617 0.420536
rfingers 7.12502 -0 0
rthumb 11.2907 -51.2093 0.383058
376
root 6.09238 16.5449 -15.5802 9.47166 -18.7409 -6.54799
lfemur -44.1558 21.0252 -13.0192
ltibia 55.3003 -0 0
lfoot -7.03247 0.943816 -0.115999
ltoes 14.5695 -0 0
rfemur -20.9916 -1.19819 31.4041
rtibia 38.3812 -0 0
rfoot -23.3118 0.991777 0.0766485
rtoes 16.6614 -0 0
lowerback 4.787 2.14619 3.73234
upperback 2.47613 2.99942 0.912605
thorax 0.0298754 1.52344 -1.29391
lowerneck -7.4706 -1.2684 3.1925
upperneck -0.183187 -2.01542 2.05228
head 1.18728 -0.969879 0.0336437
lclavicle 8.33671e-15 -2.30022e-15 1.8519e-31
lhumerus -39.9848 -22.802 94.2033
lradius 55.2049 -0 0
lwrist 17.0985 0 0
lhand -21.0479 2.48986 0.0646656
lfingers 7.12502 -0 0
lthumb 5.32674 32.3621 0.0555378
rclavicle 8.33671e-15 -2.30022e-15 1.8519e-31
rhumerus -38.133 13.4192 -94.0981
rradius 59.5242 -0 0
rwrist 9.6156 0 0
rhand -13.6018 -20.6235 0.31866
rfingers 7.12502 -0 0
rthumb 12.5176 -50.1579 0.295641
377
root 6.04816 16.5445 -15.4573 9.52516 -19.4501 -6.65297
lfemur -45.079 20.7962 -13.4668
ltibia 54.2556 -0 0
lfoot -7.45932 1.64791 -0.0722453
ltoes 14.1326 -0 0
rfemur -20.5598 -0.784126 31.4002
rtibia 38.5917 -0 0
rfoot -23.1751 0.834968 0.0429955
rtoes 17.1515 -0 0
lowerback 4.87049 2.24614 3.81916
upperback 2.48124 3.13989 0.840709
thorax -0.0019638 1.59365 -1.4235
lowerneck -7.43568 -1.13753 3.36649
upperneck -0.19634 -1.85357 1.97461
head 1.17369 -0.89001 -0.0124757
lclavicle 8.15866e-15 -3.04037e-15 1.31376e-31
lhumerus -39.8645 -22.7891 93.8583
lradius 55.0693 -0 0
lwrist 17.1881 0 0
lhand -21.5327 2.29082 0.0418543
lfingers 7.12502 -0 0
lthumb 4.85909 32.1883 0.0354089
rclavicle 8.15866e-15 -3.04037e-15 1.31376e-31
rhumerus -38.0859 13.7999 -94.0714
rradius 58.8994 -0 0
rwrist 9.88405 0 0
rhand -12.5338 -19.7588 0.207894
rfingers 7.12502 -0 0
rthumb 13.5442 -49.2477 0.196221
378
root 6.00284 16.5438 -15.331 9.55013 -20.161 -6.74629
lfemur -45.7815 20.4929 -13.7785
ltibia 53.3126 -0 0
lfoot -7.8145 2.29015 -0.0324646
ltoes 13.7303 -0 0
rfemur -20.2045 -0.533217 31.3971
rtibia 38.9438 -0 0
rfoot -22.9454 0.708361 0.0168671
rtoes 17.6322 -0 0
lowerback 4.93964 2.34492 3.88146
upperback 2.4808 3.27729 0.771067
thorax -0.0326302 1.66213 -1.53638
lowerneck -7.40126 -1.01043 3.5318
upperneck -0.183389 -1.69687 1.90624
head 1.16904 -0.811963 -0.0549328
lclavicle 7.89842e-15 -3.73363e-15 6.97546e-32
lhumerus -39.7876 -22.744 93.5618
lradius 54.9346 -0 0
lwrist 17.2693 0 0
lhand -21.9184 2.13084 0.0200112
lfingers 7.12502 -0 0
lthumb 4.48712 32.0503 0.0166127
rclavicle 7.89842e-15 -3.73363e-15 6.97546e-32
rhumerus -38.1022 14.0909 -94.0644
rradius 58.3656 -0 0
rwrist 10.1025 0 0
rhand -11.7096 -19.0437 0.0983791
rfingers 7.12502 -0 0
rthumb 14.337 -48.5025 0.0945298
379
root 5.95621 16.5429 -15.2007 9.54319 -20.8765 -6.8271
lfemur -46.2414 20.1137 -13.9394
ltibia 52.4892 0 0
lfoot -8.08989 2.85728 0
ltoes 13.3749 0 0
rfemur -19.9317 -0.463717 31.3962
rtibia 39.4485 0 0
rfoot -22.618 0.618733 0
rtoes 18.1011 0 0
lowerback 4.99316 2.4425 3.91702
upperback 2.47433 3.41131 0.704442
thorax -0.0620885 1.72875 -1.63046
lowerneck -7.36796 -0.887037 3.6871
upperneck -0.141185 -1.54524 1.84803
head 1.17445 -0.735625 -0.0933401
lclavicle 7.55382e-15 -4.37326e-15 0
lhumerus -39.7586 -22.6619 93.3187
lradius 54.8011 0 0
lwrist 17.3402 0 0
lhand -22.1962 2.01352 0
lfingers 7.12502 0 0
lthumb 4.21936 31.9515 0
rclavicle 7.55382e-15 -4.37326e-15 0
rhumerus -38.1913 14.2795 -94.0831
rradius 57.9319 0 0
rwrist 10.2654 0 0
rhand -11.1636 -18.4989 0
rfingers 7.12502 0 0
rthumb 14.8629 -767.946 0
380
root 5.90898 16.5417 -15.0659 9.5027 -21.5963 -6.88834
lfemur -46.4583 19.6315 -13.9576
ltibia 51.7135 -0 0
lfoot -8.27732 3.4083 0.0277392
ltoes 13.0115 -0 0
rfemur -19.7328 -0.591908 31.3899
rtibia 40.1648 -0 0
rfoot -22.1551 0.542522 -0.0130236
rtoes 18.5949 -0 0
lowerback 5.02635 2.54252 3.92102
upperback 2.46047 3.54639 0.636351
thorax -0.0888586 1.7957 -1.70779
lowerneck -7.33173 -0.7712 3.83486
upperneck -0.0699749 -1.40393 1.80608
head 1.18899 -0.663535 -0.12614
lclavicle 7.11154e-15 -5.03502e-15 -1.00967e-31
lhumerus -39.7817 -22.5501 93.1267
lradius 54.6676 -0 0
lwrist 17.4118 0 0
lhand -22.349 1.94629 -0.0160921
lfingers 7.12502 -0 0
lthumb 4.07226 31.8978 -0.0129762
rclavicle 7.11154e-15 -5.03502e-15 -1.00967e-31
rhumerus -38.3431 14.3907 -94.1128
rradius 57.5876 -0 0
rwrist 10.3712 0 0
rhand -10.8266 -18.0824 -0.0831456
rfingers 7.12502 -0 0
rthumb 15.1881 -47.5298 -0.0815215
381
root 5.86192 16.5401 -14.9268 9.43061 -22.3169 -6.92436
lfemur -46.4598 19.03 -13.8597
ltibia 50.9064 -0 0
lfoot -8.38006 4.00639 0.0548794
ltoes 12.5817 -0 0
rfemur -19.5936 -0.90885 31.368
rtibia 41.1265 -0 0
rfoot -21.5328 0.452659 -0.0280978
rtoes 19.1462 -0 0
lowerback 5.03688 2.648 3.89218
upperback 2.43869 3.68641 0.562257
thorax -0.111763 1.86493 -1.77257
lowerneck -7.28868 -0.66607 3.97867
upperneck 0.0263532 -1.27726 1.78432
head 1.21061 -0.597852 -0.152532
lclavicle 6.56355e-15 -5.78763e-15 -2.48209e-31
lhumerus -39.8547 -22.4207 92.978
lradius 54.5326 -0 0
lwrist 17.4946 0 0
lhand -22.3737 1.93066 -0.0267683
lfingers 7.12502 -0 0
lthumb 4.04867 31.8895 -0.0214475
rclavicle 6.56355e-15 -5.78763e-15 -2.48209e-31
rhumerus -38.5383 14.46 -94.1349
rradius 57.3132 -0 0
rwrist 10.4254 0 0
rhand -10.6011 -17.7351 -0.152633
rfingers 7.12502 -0 0
rthumb 15.4059 -47.1862 -0.149519
382
root 5.81499 16.5381 -14.7838 9.3289 -23.036 -6.93647
lfemur -46.2677 18.3224 -13.6602
ltibia 50.0748 -0 0
lfoot -8.40726 4.64463 0.080324
ltoes 12.092 -0 0
rfemur -19.5116 -1.39505 31.3295
rtibia 42.3069 -0 0
rfoot -20.7664 0.350712 -0.0443415
rtoes 19.746 -0 0
lowerback 5.02704 2.75795 3.83361
upperback 2.40979 3.83024 0.48284
thorax -0.131218 1.93592 -1.82585
lowerneck -7.23964 -0.570548 4.11885
upperneck 0.14547 -1.1637 1.78038
head 1.23873 -0.537892 -0.173265
lclavicle 5.91559e-15 -6.61379e-15 -4.3019e-31
lhumerus -39.973 -22.2758 92.8692
lradius 54.3962 -0 0
lwrist 17.5867 0 0
lhand -22.2826 1.96142 -0.0324235
lfingers 7.12502 -0 0
lthumb 4.13678 31.922 -0.0257594
rclavicle 5.91559e-15 -6.61379e-15 -4.3019e-31
rhumerus -38.7725 14.4899 -94.1495
rradius 57.1045 -0 0
rwrist 10.433 0 0
rhand -10.4791 -17.4518 -0.208243
rfingers 7.12502 -0 0
rthumb 15.5238 -46.9099 -0.203792
